<svg width="800" height="800" viewBox="0 0 800 800" fill="none" xmlns="http://www.w3.org/2000/svg">
<g clip-path="url(#clip0_1_2)">
<path fill-rule="evenodd" clip-rule="evenodd" d="M704.876 173.6C753.416 227.879 783.716 275.34 794.925 314.665C806.729 356.089 795.732 382.434 784.431 397.242C777.746 405.995 768.839 413.465 758.668 418.845C758.609 418.876 758.563 418.894 758.506 418.924V489.905C758.506 560.333 720.25 626.08 650.784 675.037C583.361 722.555 494.055 748.723 399.321 748.723C304.586 748.723 215.278 722.555 147.857 675.037C78.3939 626.08 40.1377 560.335 40.1377 489.905V417.615C35.4751 414.636 31.0766 411.206 27.0447 407.346C-2.27871 379.266 -34.6575 301.531 87.9266 172.977C162.668 94.2398 274.015 51.28 399.323 51.28C535.769 51.28 629.261 92.1661 704.876 173.6ZM78.9296 499.884C86.5552 616.778 227.336 710.271 399.323 710.271C572.913 710.271 714.716 615.032 719.899 496.611C713.242 518.842 700.813 541.373 672.751 555.217C672.379 555.401 672.003 555.57 671.618 555.732C627.674 573.977 597.641 555.491 573.505 540.629C553.673 528.418 540.619 521.161 522.966 525.573C522.392 525.716 521.818 525.832 521.233 525.921C511.572 527.413 507.938 537.789 501.922 568.217L501.921 568.221C493.934 608.618 481.865 669.662 400.213 673.307C399.926 673.32 398.793 673.323 398.516 673.31C319.1 669.839 306.279 609.224 297.795 569.112L297.794 569.107C291.709 540.332 287.946 527.549 277.452 525.911C276.88 525.824 276.316 525.709 275.758 525.568C258.105 521.169 245.048 528.415 225.213 540.624L225.208 540.627C201.076 555.481 171.049 573.963 127.121 555.724C126.739 555.565 126.36 555.393 125.988 555.209C97.9847 541.388 85.612 520.762 78.9296 499.884ZM732.948 387.975C735.447 387.266 755.176 381.668 759.798 362.051C762.274 351.54 763.284 333.546 750.276 304.494C745.203 330.695 731.316 351.291 716.377 366.588C669.806 414.282 576.62 446.1 460.71 453.882C443.465 455.04 426.317 455.607 409.479 455.607C324.169 455.607 246.737 441.132 203.749 416.087C145.051 381.891 112.728 335.296 112.728 284.888C112.731 234.484 145.056 187.895 203.749 153.702C248.667 127.531 307.983 113.118 370.769 113.118C433.555 113.118 492.874 127.531 537.794 153.702C577.576 176.876 599.486 208.816 599.486 243.643C599.486 243.643 599.486 264 580.5 264C561.04 264 561.04 243.645 561.04 243.645C561.04 223.073 545.912 202.929 518.442 186.926C437.013 139.486 304.527 139.486 223.104 186.926C176.722 213.943 151.179 248.736 151.177 284.893C151.177 321.052 176.719 355.846 223.104 382.867C267.696 408.846 362.159 421.964 458.134 415.523C563.157 408.471 648.785 379.512 688.871 339.731C740.933 288.061 681.34 204.946 675.817 198.776C675.674 198.62 675.548 198.458 675.421 198.295C675.362 198.219 675.303 198.144 675.242 198.069C675.188 198.003 675.132 197.94 675.076 197.877C675.001 197.793 674.926 197.71 674.855 197.617C621.755 128.046 523.907 89.7336 399.323 89.7336C286.71 89.7336 180.859 131.409 123.074 198.494C123.052 198.52 123.03 198.543 123.008 198.565C122.979 198.595 122.949 198.623 122.92 198.653C122.884 198.694 122.85 198.738 122.815 198.781C122.771 198.837 122.727 198.893 122.679 198.945C40.6042 288.476 37.1797 336.47 41.1066 357.389C45.4003 380.259 67.2791 388.745 68.646 389.275C68.6867 389.29 68.7092 389.299 68.7126 389.301C99.6559 405.688 105.18 436.616 109.611 461.497C114.751 490.339 119.111 508.689 142.449 520.457C166.684 530.304 181.351 522.484 205.061 507.889C225.282 495.434 250.425 479.96 284.262 488.07C321.293 494.406 329.115 531.388 335.41 561.152L335.412 561.158C344.737 605.271 352.842 632.513 399.346 634.864C447.607 632.398 455.45 605.048 464.204 560.768L464.205 560.762C470.057 531.155 477.328 494.367 514.474 488.078C548.306 479.982 573.416 495.436 593.635 507.88L593.663 507.897C617.375 522.492 632.049 530.317 656.29 520.469C678.754 509.104 683.619 489.218 688.917 457.955C693.418 431.402 699.024 398.47 732.702 388.048C732.734 388.036 732.818 388.012 732.948 387.975Z" fill="black"/>
<ellipse cx="372.5" cy="204.222" rx="49.5" ry="34.2222" fill="black"/>
<ellipse cx="491.5" cy="259.222" rx="49.5" ry="34.2222" fill="black"/>
<ellipse cx="447.5" cy="349.929" rx="51.5" ry="33.9294" fill="black"/>
<ellipse cx="299.5" cy="350.222" rx="49.5" ry="34.2222" fill="black"/>
<ellipse cx="259.5" cy="259.222" rx="49.5" ry="34.2222" fill="black"/>
<ellipse cx="373" cy="284.815" rx="33" ry="22.8148" fill="black"/>
</g>
<defs>
<clipPath id="clip0_1_2">
<rect width="800" height="800" fill="white"/>
</clipPath>
</defs>
</svg>
